<svg xmlns="http://www.w3.org/2000/svg" version="1.1" xmlns:xlink="http://www.w3.org/1999/xlink" xmlns:svgjs="http://svgjs.dev/svgjs" width="1000" height="1000" viewBox="0 0 1000 1000"><rect width="1000" height="1000" fill="#000000"></rect><g transform="matrix(0.7,0,0,0.7,150.0000000000001,106.25)"><svg viewBox="0 0 320 360" data-background-color="#ff0000" preserveAspectRatio="xMidYMid meet" height="1125" width="1000" xmlns="http://www.w3.org/2000/svg" xmlns:xlink="http://www.w3.org/1999/xlink"><g id="tight-bounds" transform="matrix(1,0,0,1,0,0)"><svg viewBox="0 0 320 360" height="360" width="320"><g><svg></svg></g><g><svg viewBox="0 0 320 360" height="360" width="320"><g><path xmlns="http://www.w3.org/2000/svg" d="M20.961 227.22l3.726 4.658-1.863-6.056c-0.466-2.795-3.726 0.466-1.863 1.398M25.153 224.425c1.397 2.329 2.795 4.658 2.795 6.987 0 3.261 2.795 4.658 5.123 5.589-3.261-3.726-5.124-13.974-7.918-12.576M204.017 26.929c7.918 0 15.371-0.932 23.756 0.931 20.495 5.124 37.729 15.371 49.374 29.811l32.606 52.169c1.397 13.042 4.192 27.482 3.726 43.319 3.261 0 2.795-4.658 6.521-5.59-3.726 9.316-5.59 20.961-6.521 34.469-2.329-7.453 0-18.632 0.466-24.687-3.261 5.124-5.124 1.397-5.124-0.932 0.466-3.726-1.397-3.261-2.795-4.658-5.124-4.658-8.384-9.782-12.11-17.7 2.329-6.055 2.795-14.905-4.658-19.563-2.329-1.397-5.124-3.726-6.521-7.453-1.863-5.124-5.124-11.179-4.193-19.097 0.466-2.329-6.987 5.124-11.179 1.863-18.166-12.576-36.332-27.016-58.224-39.127-11.645 0-20.029-4.192-24.221-9.316-3.726-4.658-0.932-10.713 4.658-11.179 3.261 0 6.987-0.932 9.782 0.932 0.466-1.863 2.329-4.192 4.657-4.192M157.904 16.215l0.932 0.466c4.658 0.932 6.987 7.453 12.11 5.124 0 3.261 0.466 6.521-0.466 8.85-1.397 3.726-5.59 3.726-8.85 3.726-31.208-1.863-49.374 11.179-68.471 22.358-5.124 3.261-10.713 5.59-14.906 9.782-20.029 18.632-41.921 35.866-47.045 70.335l-4.192 38.195c-0.466 4.192-5.124 8.384-4.192 13.508l3.26 22.824c-3.261-3.261-5.124 0.932-4.192 2.795 0.466 1.397 2.329 6.055 5.124 1.863 3.726 6.987 7.453 20.495 12.576 26.55 15.837 18.632 36.332 35.4 53.101 52.169 4.192-0.932 7.453-0.932 8.384-3.727 1.397 2.795-1.397 5.59-3.726 6.056 7.453 4.658 15.837 8.85 27.016 9.781 14.44 0.932 27.948 3.261 40.524 6.522 6.521-1.863 13.042-2.795 20.029-3.261 2.329 0 3.726-3.726 6.521-4.658l0.466-4.658c2.795 4.192 2.329-1.397 0.466-4.192 3.261 2.795 4.192 5.124 5.589 6.987 0-1.397 3.726-6.521 3.727-0.466l0.931-6.055c1.397-0.932 1.863 5.124 3.261 0.931 1.397-4.192 4.192-0.932 6.987-2.329-0.932 1.863-0.466 5.59 2.794 3.261l3.727-3.261c2.329 5.59 6.055 3.261 7.918 2.329 20.495-13.042 40.99-28.413 60.553-43.784l-0.466 6.055 2.329-7.453c2.329 2.329 4.192 0.466 5.124-0.931 2.795-4.658 6.521-9.316 12.577-13.508-7.453 20.029-16.303 35.866-27.482 48.908l-4.658 5.59c0 3.261-0.932 7.453-4.658 7.918-1.863 0.466-5.59-0.932-8.384 1.863-1.397 1.863 3.261 5.59-0.466 2.795-3.261-2.329-6.521 0-10.248 0.932-2.795 0.932 1.863 3.726 2.795 5.589 0.932 1.863 1.863 3.726 1.398 6.056l-5.124-5.59c-6.055 3.261-9.782 9.316-14.906 13.974-2.329 1.863-1.397 5.124-1.397 7.918-3.261 0-6.987-0.932-8.85 0.932-1.397 1.863-0.932 4.658-0.932 7.453-4.658-0.466-5.124-7.453-9.315-6.056-4.192 0.932-8.85 1.397-12.577 3.727 2.795 5.59-4.658 2.329-3.726 3.26-6.987-4.192-13.042-7.453-20.495-4.658-15.837-5.124-35.4-2.795-49.84-0.931 0-2.329 0.466-4.658-0.466-5.124-0.932 2.329-3.726 1.397-3.26 1.397-8.85-6.055-17.7-9.782-27.016-14.905-8.384 0.932-16.303-3.261-18.632-5.59-6.521-6.055-13.974-2.795-20.029-4.192-13.042-3.261-17.7-16.769-19.098-26.084-0.932-4.658-4.658-6.521-6.055-6.056-6.055-19.563-15.371-37.263-22.824-55.429-1.863-4.658-1.397-9.316-1.397-14.44 2.329 0.932 4.658 0.466 4.192-2.794-2.329-15.371-7.918-27.016-13.974-38.195 3.261-15.837 3.726-34.469 11.179-48.443 6.521-12.576 18.632-19.098 27.016-29.811 2.795-3.726 2.795-8.85 5.59-12.11 9.316-9.316 18.632-19.098 28.879-27.482 4.658-3.726 10.247 0 17.234-1.397 2.329-8.384 11.645-15.837 20.495-13.508 3.726 0.932 11.179-8.85 13.508-9.782 3.726-1.397 1.863 3.726 1.863 6.987 8.85-6.987 20.961-10.713 32.14-14.906" fill="#ffffff" fill-rule="nonzero" stroke="none" stroke-width="1" stroke-linecap="butt" stroke-linejoin="miter" stroke-miterlimit="10" stroke-dasharray="" stroke-dashoffset="0" font-family="none" font-weight="none" font-size="none" text-anchor="none" style="mix-blend-mode: normal" data-fill-palette-color="tertiary"></path></g><g transform="matrix(1,0,0,1,64,91.7153144185263)"><svg viewBox="0 0 192 176.5693711629474" height="176.5693711629474" width="192"><g><svg viewBox="0 0 192 176.5693711629474" height="176.5693711629474" width="192"><g><svg viewBox="0 0 192 176.5693711629474" height="176.5693711629474" width="192"><g transform="matrix(1,0,0,1,0,106.72179221557896)"><svg viewBox="0 0 192 69.84757894736842" height="69.84757894736842" width="192"><g id="textblocktransform"><svg viewBox="0 0 192 69.84757894736842" height="69.84757894736842" width="192" id="textblock"><g><svg viewBox="0 0 192 69.84757894736842" height="69.84757894736842" width="192"><g transform="matrix(1,0,0,1,0,0)"><svg width="192" viewBox="-2.1500000953674316 -37.5 118.73999786376953 43.20000076293945" height="69.84757894736842" data-palette-color="#ffffff"><path d="M27.85 0L22.35 0 22.35-18Q20.45-18.9 18.03-19.53 15.6-20.15 13.1-20.45L13.1-20.45Q12.5-18.25 12-15.93 11.5-13.6 11.15-11.33 10.8-9.05 10.6-6.88 10.4-4.7 10.4-2.75L10.4-2.75Q10.4-0.55 10.73 1.55 11.05 3.65 12.15 5.7L12.15 5.7Q11 5.7 9.75 5.45 8.5 5.2 7.45 4.33 6.4 3.45 5.73 1.83 5.05 0.2 5.05-2.55L5.05-2.55Q5.05-4.3 5.3-6.45 5.55-8.6 6.05-10.95 6.55-13.3 7.28-15.78 8-18.25 8.9-20.65L8.9-20.65Q7.45-20.6 6.18-20.4 4.9-20.2 3.98-19.83 3.05-19.45 2.5-18.95 1.95-18.45 1.95-17.85L1.95-17.85Q1.95-17.65 2-17.55L2-17.55Q3.3-17.15 3.3-15.9L3.3-15.9Q3.3-15 2.65-14.65 2-14.3 1.25-14.3L1.25-14.3Q0-14.3-1.07-15.03-2.15-15.75-2.15-17.55L-2.15-17.55Q-2.15-18.75-1.43-19.7-0.7-20.65 0.58-21.33 1.85-22 3.58-22.35 5.3-22.7 7.35-22.7L7.35-22.7Q7.9-22.7 8.5-22.68 9.1-22.65 9.7-22.6L9.7-22.6Q10.95-25.6 12.5-28.33 14.05-31.05 15.85-33.08 17.65-35.1 19.65-36.3 21.65-37.5 23.85-37.5L23.85-37.5Q24.6-37.5 25.73-37.35 26.85-37.2 27.85-36.8L27.85-36.8 27.85 0ZM13.6-22.1L13.6-22.1Q16.1-21.65 18.4-20.98 20.7-20.3 22.35-19.5L22.35-19.5 22.35-35.1Q21.1-35 19.9-33.98 18.7-32.95 17.57-31.2 16.45-29.45 15.45-27.13 14.45-24.8 13.6-22.1ZM32.45-25L37.45-25 37.45-21.55Q38.75-23.95 40.2-24.6 41.65-25.25 42.95-25.25L42.95-25.25Q44.25-25.25 45.22-24.9 46.2-24.55 46.9-23.95 47.6-23.35 48.07-22.55 48.55-21.75 48.85-20.8L48.85-20.8Q49.55-22.3 50.3-23.18 51.05-24.05 51.8-24.53 52.55-25 53.27-25.13 54-25.25 54.6-25.25L54.6-25.25Q56.85-25.25 58.22-24.4 59.6-23.55 60.3-22.23 61-20.9 61.22-19.33 61.45-17.75 61.45-16.3L61.45-16.3Q61.45-15.4 61.4-14.33 61.35-13.25 61.3-12.13 61.25-11 61.2-9.88 61.15-8.75 61.15-7.8L61.15-7.8Q61.15-7.4 61.2-6.68 61.25-5.95 61.45-5.25 61.65-4.55 62.1-4.03 62.55-3.5 63.4-3.5L63.4-3.5Q64.55-3.5 65.47-4.8 66.4-6.1 67-8.95L67-8.95 68.85-8.95Q68.3-5.8 67.45-3.98 66.6-2.15 65.65-1.2 64.7-0.25 63.75 0.03 62.8 0.3 62 0.3L62 0.3Q60.4 0.3 59.3-0.33 58.2-0.95 57.5-2 56.8-3.05 56.47-4.45 56.15-5.85 56.15-7.35L56.15-7.35Q56.15-7.8 56.17-9.03 56.2-10.25 56.22-11.65 56.25-13.05 56.27-14.3 56.3-15.55 56.3-16.05L56.3-16.05Q56.3-17.65 56.05-18.7 55.8-19.75 55.35-20.35 54.9-20.95 54.32-21.2 53.75-21.45 53.1-21.45L53.1-21.45Q51.55-21.45 50.57-20.2 49.6-18.95 49.2-16L49.2-16 49.2 0 44.2 0 44.2-16.7Q44.2-17.6 44.12-18.45 44.05-19.3 43.75-19.98 43.45-20.65 42.9-21.05 42.35-21.45 41.4-21.45L41.4-21.45Q39.8-21.45 38.97-20.13 38.15-18.8 37.45-16L37.45-16 37.45 0 32.45 0 32.45-25ZM80.55-25L85.55-25 85.55-8Q85.55-7.5 85.59-6.75 85.65-6 85.87-5.28 86.09-4.55 86.55-4.03 87-3.5 87.8-3.5L87.8-3.5Q90.25-3.5 91.4-8.95L91.4-8.95 93.25-8.95Q92.7-5.8 91.84-3.98 91-2.15 90.05-1.2 89.09-0.25 88.09 0.03 87.09 0.3 86.3 0.3L86.3 0.3Q85.15 0.3 84.32-0.1 83.5-0.5 82.92-1.15 82.34-1.8 82-2.65 81.65-3.5 81.45-4.45L81.45-4.45Q80.7-2.5 79.02-1.1 77.34 0.3 74.95 0.3L74.95 0.3Q73.45 0.3 71.92-0.3 70.39-0.9 69.17-2.27 67.95-3.65 67.17-5.83 66.39-8 66.39-11.15L66.39-11.15Q66.39-13.45 66.92-15.95 67.45-18.45 68.59-20.5 69.75-22.55 71.55-23.9 73.34-25.25 75.9-25.25L75.9-25.25Q76.5-25.25 77.17-25.13 77.84-25 78.47-24.7 79.09-24.4 79.65-23.88 80.2-23.35 80.55-22.6L80.55-22.6 80.55-25ZM76.2-3.5L76.2-3.5Q76.95-3.5 77.72-3.93 78.5-4.35 79.12-5.08 79.75-5.8 80.15-6.8 80.55-7.8 80.55-8.95L80.55-8.95 80.55-20.35Q80.2-21.15 79.47-21.83 78.75-22.5 77.59-22.5L77.59-22.5Q76-22.5 74.84-21.43 73.7-20.35 73-18.73 72.3-17.1 71.97-15.18 71.64-13.25 71.64-11.5L71.64-11.5Q71.64-7.2 72.82-5.35 74-3.5 76.2-3.5ZM91.34-25L96.34-25 96.34-21.2Q97.09-22.55 97.87-23.38 98.64-24.2 99.44-24.6 100.24-25 100.97-25.13 101.69-25.25 102.34-25.25L102.34-25.25Q104.59-25.25 105.97-24.4 107.34-23.55 108.04-22.23 108.74-20.9 108.97-19.33 109.19-17.75 109.19-16.3L109.19-16.3Q109.19-15.4 109.14-14.33 109.09-13.25 109.04-12.13 108.99-11 108.94-9.88 108.89-8.75 108.89-7.8L108.89-7.8Q108.89-7.4 108.94-6.68 108.99-5.95 109.19-5.25 109.39-4.55 109.84-4.03 110.29-3.5 111.14-3.5L111.14-3.5Q112.29-3.5 113.22-4.8 114.14-6.1 114.74-8.95L114.74-8.95 116.59-8.95Q116.04-5.8 115.19-3.98 114.34-2.15 113.39-1.2 112.44-0.25 111.49 0.03 110.54 0.3 109.74 0.3L109.74 0.3Q108.14 0.3 107.04-0.33 105.94-0.95 105.24-2 104.54-3.05 104.22-4.45 103.89-5.85 103.89-7.35L103.89-7.35Q103.89-7.8 103.92-9.03 103.94-10.25 103.97-11.65 103.99-13.05 104.02-14.3 104.04-15.55 104.04-16.05L104.04-16.05Q104.04-17.65 103.79-18.7 103.54-19.75 103.09-20.35 102.64-20.95 102.07-21.2 101.49-21.45 100.84-21.45L100.84-21.45Q99.29-21.45 98.17-20.2 97.04-18.95 96.34-16L96.34-16 96.34 0 91.34 0 91.34-25Z" opacity="1" transform="matrix(1,0,0,1,0,0)" fill="#ffffff" class="wordmark-text-0" data-fill-palette-color="primary" id="text-0"></path></svg></g></svg></g></svg></g></svg></g><g transform="matrix(1,0,0,1,70.73588252321827,0)"><svg viewBox="0 0 50.52823495356347 96.52935410526317" height="96.52935410526317" width="50.52823495356347"><g><svg xmlns="http://www.w3.org/2000/svg" xmlns:xlink="http://www.w3.org/1999/xlink" version="1.1" x="0" y="0" viewBox="19.682355880737305 3.5 35.572967529296875 67.95874786376953" enable-background="new 0 0 75 75" xml:space="preserve" height="96.52935410526317" width="50.52823495356347" class="icon-icon-0" data-fill-palette-color="accent" id="icon-0"><path d="M21.2 59.5c-1.1-2.6-4.2-12.2 3.8-24.7C36 18 31.7 3.5 31.7 3.5S46 8.8 41.7 37.5c-1 6.5-0.9 9 2 9.4 5 0.7 3.1-19.7 3.1-19.7s3.9 2 6.8 12.1c1.5 5.3 1.8 9.5 1.6 12.5-1 18.1-16.5 19.6-16.5 19.6S26.9 73 21.2 59.5z" fill="#ffffff" data-fill-palette-color="accent"></path></svg></g></svg></g><g></g></svg></g></svg></g></svg></g></svg></g><defs></defs></svg><rect width="320" height="360" fill="none" stroke="none" visibility="hidden"></rect></g></svg></g></svg>